<svg xmlns="http://www.w3.org/2000/svg" viewBox="0 0 1920 1080"><path fill="#320070" d="M0 0h1920v1080H0z"/><path d="M0-1080c10.569 88.271 66.67 360.919 63.412 529.626-3.258 168.708-60.029 347.901-82.961 482.62-22.933 134.718-54.345 189.342-54.636 325.69-.292 136.348 37.73 334.436 52.889 492.396 15.158 157.96 31.926 309.094 38.059 455.365 6.133 146.27 1.532 263.205-1.262 422.256C12.707 1787.003 2.584 2071.325 0 2160h1920v-3240Z" fill="url(&quot;#a&quot;)" transform="rotate(90 1032.624 511.282) scale(1.15)"/><path d="M384-1080c-6.493 68.208-32.779 268.543-38.957 409.248-6.178 140.705-12.426 286.038 1.89 434.983 14.315 148.945 90.609 304.456 84.003 458.685-6.606 154.23-103.45 286.492-123.637 466.691-20.187 180.2-22.228 459.948 2.514 614.505 24.742 154.557 133.575 170.188 145.94 312.836C468.116 1759.596 395.958 2069.491 384 2160h1536v-3240Z" fill="url(&quot;#b&quot;)" transform="rotate(90 1032.624 511.282) scale(1.15)"/><path d="M768-1080c8.55 62.96 63.485 219.674 51.3 377.759-12.186 158.084-123.368 397.835-124.412 570.75-1.044 172.914 91.473 305.453 118.146 466.738 26.673 161.285 47.612 361.82 41.89 500.97-5.72 139.15-53.318 180.225-76.219 333.928-22.9 153.703-59.402 423.313-61.187 588.29C715.734 1923.41 759.586 2093.071 768 2160h1152v-3240Z" fill="url(&quot;#c&quot;)" transform="rotate(90 1032.624 511.282) scale(1.15)"/><path d="M1152-1080c8.236 107.809 44.429 425.485 49.413 646.852 4.985 221.367-7.106 462.466-19.505 681.348-12.4 218.883-40.538 420.825-54.888 631.946-14.35 211.12-35.375 421.468-31.212 634.777 4.164 213.31 46.827 537.564 56.192 645.077h768v-3240Z" fill="url(&quot;#d&quot;)" transform="rotate(90 1032.624 511.282) scale(1.15)"/><path d="M1536-1080c-5.962 85.746-31.137 343.765-35.772 514.476-4.636 170.71-5.203 324.124 7.96 509.788 13.162 185.665 72.486 408.883 71.017 604.198-1.47 195.315-65.535 398.894-79.833 567.692-14.298 168.798-12.06 271.121-5.955 445.096 6.105 173.974 35.486 498.958 42.583 598.75h384v-3240Z" fill="url(&quot;#e&quot;)" transform="rotate(90 1032.624 511.282) scale(1.15)"/><defs><linearGradient x1=".1" y1="0" x2="0" y2="1" id="a"><stop stop-color="#320070" offset="0"/><stop stop-color="#1f0070" offset="0"/></linearGradient><linearGradient x1=".1" y1="0" x2="0" y2="1" id="b"><stop stop-color="#2d0065" offset="0"/><stop stop-color="#1c0065" offset=".2"/></linearGradient><linearGradient x1=".1" y1="0" x2="0" y2="1" id="c"><stop stop-color="#28005a" offset="0"/><stop stop-color="#19005a" offset=".4"/></linearGradient><linearGradient x1=".1" y1="0" x2="0" y2="1" id="d"><stop stop-color="#23004f" offset="0"/><stop stop-color="#16004f" offset=".6"/></linearGradient><linearGradient x1=".1" y1="0" x2="0" y2="1" id="e"><stop stop-color="#1e0044" offset="0"/><stop stop-color="#130044" offset=".8"/></linearGradient></defs></svg>