<svg xmlns="http://www.w3.org/2000/svg" viewBox="0 0 1920 1080"><path fill="#6b0044" d="M0 0h1920v1080H0z"/><path d="M0-1080c10.34 87.623 65.923 350.62 62.038 525.74C58.153-379.142-5.844-201.723-23.31-29.285c-17.464 172.44-17.907 320.443-19.443 509.655-1.535 189.212-6.382 434.778 10.23 625.618 16.613 190.84 84.025 343.756 89.446 519.425C62.343 1801.08 9.487 2070.903 0 2160h1920v-3240Z" fill="url(&quot;#a&quot;)" transform="rotate(90 1048.525 510.173) scale(1.15)"/><path d="M384-1080c-13.469 98.829-80.906 386.11-80.814 592.971.092 206.862 56.468 433.867 81.365 648.2 24.897 214.331 54.076 408.727 68.017 637.793 13.941 229.067 27.057 509.767 15.63 736.606-11.43 226.84-70.166 520.358-84.198 624.43h1536v-3240Z" fill="url(&quot;#b&quot;)" transform="rotate(90 1048.525 510.173) scale(1.15)"/><path d="M768-1080c13.367 80.053 92.424 351.923 80.202 480.32-12.221 128.398-126.914 181.44-153.531 290.063-26.617 108.623-28.367 222.841-6.169 361.672 22.199 138.832 129.17 318.617 139.358 471.317 10.19 152.699-64.88 308.572-78.222 444.88-13.343 136.308-10.692 252.97-1.833 372.966 8.859 119.996 51.621 210.546 54.987 347.01C806.158 1824.69 773.8 2081.37 768 2160h1152v-3240Z" fill="url(&quot;#c&quot;)" transform="rotate(90 1048.525 510.173) scale(1.15)"/><path d="M1152-1080c3.428 112.645 10.163 459.799 20.569 675.873 10.405 216.074 30.653 420.245 41.866 620.57 11.213 200.326 39.55 364.12 25.41 581.382-14.14 217.26-95.611 495.154-110.252 722.184-14.64 227.029 18.673 533.326 22.407 639.991h768v-3240Z" fill="url(&quot;#d&quot;)" transform="rotate(90 1048.525 510.173) scale(1.15)"/><path d="M1536-1080c-2.002 104.429-22.127 421.783-12.01 626.573 10.117 204.789 59.851 369.758 72.713 602.162 12.862 232.405 2.053 550.237 4.458 792.266 2.405 242.03 20.832 456.745 9.972 659.912-10.86 203.166-62.61 465.906-75.133 559.087h384v-3240Z" fill="url(&quot;#e&quot;)" transform="rotate(90 1048.525 510.173) scale(1.15)"/><defs><linearGradient x1=".1" y1="0" x2="0" y2="1" id="a"><stop stop-color="#6b0044" offset="0"/><stop stop-color="#6b0056" offset="0"/></linearGradient><linearGradient x1=".1" y1="0" x2="0" y2="1" id="b"><stop stop-color="#5b003a" offset="0"/><stop stop-color="#5b0049" offset=".2"/></linearGradient><linearGradient x1=".1" y1="0" x2="0" y2="1" id="c"><stop stop-color="#4b0030" offset="0"/><stop stop-color="#4b003c" offset=".4"/></linearGradient><linearGradient x1=".1" y1="0" x2="0" y2="1" id="d"><stop stop-color="#3b0026" offset="0"/><stop stop-color="#3b0030" offset=".6"/></linearGradient><linearGradient x1=".1" y1="0" x2="0" y2="1" id="e"><stop stop-color="#2b001c" offset="0"/><stop stop-color="#2b0023" offset=".8"/></linearGradient></defs></svg>