<svg xmlns="http://www.w3.org/2000/svg" version="1.1" xmlns:xlink="http://www.w3.org/1999/xlink" xmlns:svgjs="http://svgjs.dev/svgjs" viewBox="0 0 1920 1080"><rect width="1920" height="1080" fill="#6b0044"></rect><g transform="matrix(7.04171909509728e-17,1.15,-1.15,7.04171909509728e-17,1558.6975708007812,-538.3522064208983)"><path d="M0,-1080C10.339625969972099,-992.3767736639795,65.922632910435,-729.3800173656914,62.0377558198326,-554.2606419838772C58.152878729230196,-379.14126660206307,-5.844185817709114,-201.72226985116453,-23.309262543614395,-29.283747709114934C-40.77433926951967,143.15477443293463,-41.217204766904395,291.15849900295734,-42.7527045355991,480.3704908684201C-44.28820430429381,669.5824827338829,-49.134845208706906,915.1478214619791,-32.522261155782644,1105.9882034836617C-15.909677102858382,1296.828585505344,51.50242292264937,1449.7441502457923,56.92279978194648,1625.4127829985152C62.34317664124359,1801.0814157512382,9.48713329699108,2070.9021304997527,0,2160L 1920 2160 L 1920 -1080 Z" fill="url(&quot;#SvgjsLinearGradient1197&quot;)"></path><path d="M384,-1080C370.53099726121116,-981.1714325326064,303.094184751278,-693.890308476505,303.1859835672671,-487.02859519563873C303.2777823832562,-280.1668819147725,359.65378544462783,-53.161861730958066,384.5507928959346,161.1702796851975C409.44780034724135,375.5024211013531,438.626968481453,569.8976201404784,452.56802827510785,798.9642533012947C466.5090880687627,1028.030886462111,479.62515637038155,1308.7307875336446,468.19715165786357,1535.5700786500954C456.7691469453456,1762.4093697665462,398.03285860964394,2055.9283464416826,384,2160L 1920 2160 L 1920 -1080 Z" fill="url(&quot;#SvgjsLinearGradient1198&quot;)"></path><path d="M768,-1080C781.3670643995589,-999.946584271684,860.423909973394,-728.0766827268299,848.2023863973533,-599.6795056301034C835.9808628213126,-471.28232853337704,721.2875185061167,-418.2394175249523,694.670858543756,-309.61693741964126C668.0541985813953,-200.99445731433025,666.3041553084238,-86.7760461147099,688.5024266231891,52.05537500176247C710.7006979379544,190.88679611823483,817.6712804806018,370.6721486304381,827.8604864323478,523.371589279193C838.0496923840938,676.071029927948,762.9802669318988,831.9442220445151,749.6376623336649,968.2520188942921C736.2950577354311,1104.559815744069,738.9457925764182,1221.2224892089384,747.8048588429451,1341.218370377855C756.6639251094721,1461.2142515467717,799.4262030733177,1551.763700970768,802.7920599328268,1688.2273059077922C806.1579167923359,1824.6909108448165,773.7986766554711,2081.3712176512986,768,2160L 1920 2160 L 1920 -1080 Z" fill="url(&quot;#SvgjsLinearGradient1199&quot;)"></path><path d="M1152,-1080C1155.428098874712,-967.3545148361301,1162.1627759818912,-620.2010507706625,1172.5685932482727,-404.12708901678036C1182.9744105146542,-188.0531272628982,1203.222210444483,16.11846842310939,1214.4349035982898,216.44377052329315C1225.6475967520967,416.7690726234769,1253.9850455498677,580.5639100595258,1239.8447521711141,797.8247235843223C1225.7044587923606,1015.0855371091188,1144.2339353542868,1292.979438936126,1129.5931433257679,1520.0086516720721C1114.952351297249,1747.0378644080183,1148.265523887628,2053.3347752786785,1152,2160L 1920 2160 L 1920 -1080 Z" fill="url(&quot;#SvgjsLinearGradient1200&quot;)"></path><path d="M1536,-1080C1533.9983451586043,-975.5712224305851,1513.8729167874124,-658.2165797229193,1523.990070951625,-453.42733458351046C1534.1072251158378,-248.6380894441017,1583.8411249350659,-83.66930053782173,1596.7029249852765,148.73547083645258C1609.564725035487,381.1402422107269,1598.7559318821397,698.9717618168856,1601.160871252889,941.0012936621354C1603.565810623638,1183.030825507385,1621.9927064185863,1397.74621085164,1611.1325612097714,1600.9126619079507C1600.2724160009566,1804.0791129642614,1548.5220935349619,2066.8187769846586,1536,2160L 1920 2160 L 1920 -1080 Z" fill="url(&quot;#SvgjsLinearGradient1201&quot;)"></path></g><defs><linearGradient x1="0.1" y1="0" x2="0" y2="1" id="SvgjsLinearGradient1197"><stop stop-color="#6b0044" offset="0"></stop><stop stop-color="#6b0056" offset="0"></stop></linearGradient><linearGradient x1="0.1" y1="0" x2="0" y2="1" id="SvgjsLinearGradient1198"><stop stop-color="#5b003a" offset="0"></stop><stop stop-color="#5b0049" offset="0.2"></stop></linearGradient><linearGradient x1="0.1" y1="0" x2="0" y2="1" id="SvgjsLinearGradient1199"><stop stop-color="#4b0030" offset="0"></stop><stop stop-color="#4b003c" offset="0.4"></stop></linearGradient><linearGradient x1="0.1" y1="0" x2="0" y2="1" id="SvgjsLinearGradient1200"><stop stop-color="#3b0026" offset="0"></stop><stop stop-color="#3b0030" offset="0.6"></stop></linearGradient><linearGradient x1="0.1" y1="0" x2="0" y2="1" id="SvgjsLinearGradient1201"><stop stop-color="#2b001c" offset="0"></stop><stop stop-color="#2b0023" offset="0.8"></stop></linearGradient></defs></svg>