<svg width="390" height="390" fill="none" xmlns="http://www.w3.org/2000/svg"><path d="M190 390h-70v-20H80v-20H60v-20h270v20h-20v20h-40v20h-80z" fill="#7E18F8"/><path d="M360 270H20v40h20v20h310v-20h20v-40h-10z" fill="#8F17F9"/><path d="M380 120h-10V80h-20V60h-20V40h-20V20h-40V0H120v20H80v20H60v20H40v20H20v40H0v30h390v-30h-10z" fill="#FA34F3"/><path d="M380 150H0v60h390v-60h-10z" fill="#CF15F9"/><path d="M380 210H0v60h390v-60h-10z" fill="#AC15F9"/><path d="M253.08 229.2v6.89h13.77v-20.65h-13.77v13.76zm-13.76 6.89H204.9v13.76h27.53v13.77h13.77v-13.77h6.88v-13.76h-13.76zm-20.65-20.65h34.41v-13.77h-34.41v13.77zm-13.77-34.419v20.649h13.77v-20.649H204.9zm48.18-13.771h-6.88v-13.76h-13.77v13.76h-13.76v13.77h48.18v-13.77h-13.77zm89.49 0h-61.95v13.77h27.53v68.83h13.77v-68.83h27.53v-13.77h-6.88zm-165.2 0v34.42h-34.42v-34.42h-13.77v82.6h13.77v-34.41h34.42v34.41h13.76v-82.6h-13.76zm-75.72 0h-41.3v13.77h55.07v-13.77h-13.77zm13.77 68.84v-34.42h-41.3v13.77h27.53v20.65h13.77zm-55.07 13.76h41.3v-13.76h-41.3v13.76zm-13.77-68.829v55.07h13.77v-55.07H46.58z" fill="#fff"/></svg>