<svg xmlns="http://www.w3.org/2000/svg" viewBox="0 0 64 64"><style>.gotchi-primary{fill:#64438e}.gotchi-secondary{fill:#edd3fd}.gotchi-wearable{animation-name:down}.gotchi-wearable,.wearable-hand,svg{animation-duration:.5s;animation-iteration-count:infinite;animation-timing-function:linear}svg{animation-name:down;animation-timing-function:steps(1)}.gotchi-wearable,.wearable-hand{animation-timing-function:steps(2)}.wearable-hand{animation-name:down!important}</style><g style="animation-name:down;animation-duration:.5s;animation-iteration-count:infinite;animation-timing-function:steps(2)"><path d="M21 12h2v-2h-4v2h1zm-2 2v-2h-2v2h1zm6-4h2V8h-4v2h1zm4-2h8V6H27v2h1zm16 6h2v-2h-2v1zm3 0h-1v39h-2v2h4V14zm-11-4h4V8h-4v1zm4 2h4v-2h-4v1zM17 53V14h-2v41h4v-2h-1zm7-2h-5v2h5v-1zm3 2h-3v2h5v-2h-1zm18-2h-5v2h5v-1zm-10 0h-6v2h6v-1zm3 2h-3v2h5v-2h-1z" class="gotchi-primary"/><path d="M18 43v6h2v-1h2v1h2v2h-5v2h-2V14h2v1h-1v26zm9 8h-3v2h5v-2h-1zm11 0h-3v2h5v-2h-1zm-3-2h-2v-1h-2v1h-2v2h6v-1zM25 11h2v-1h-4v1h1zm-4 2h2v-1h-4v1h1zm24 31v5h-1v-1h-2v1h-2v2h5v2h2V14h-2v29zM37 8H27v1h5v1h5V9zm8 4h-4v2h4v-1zm-4-2h-4v2h4v-1z" class="gotchi-secondary"/><path d="M44 14h-3v-2h-4v-2h-5V9h-5v2h-4v2h-4v2h-1v34h2v-1h2v1h2v2h5v-2h2v-1h2v1h2v2h5v-2h2v-1h2v1h1V14z" fill="#fff"/></g><path d="M21 32v2h2v-2h-1zm21 0h-1v2h2v-2z" style="animation-name:down;animation-duration:.5s;animation-iteration-count:infinite;animation-timing-function:steps(2);fill:#f696c6"/><path d="M29 32h-2v2h2v-1zm4 2h-4v2h6v-2h-1zm3-2h-1v2h2v-2z" style="animation-name:down;animation-duration:.5s;animation-iteration-count:infinite;animation-timing-function:steps(2);fill:#64438e"/><path opacity=".25" d="M25 58h-6v1h1v1h24v-1h1v-1h-1z" style="animation:up .5s infinite linear steps(2);animation-name:up;animation-duration:.5s;animation-iteration-count:infinite;animation-timing-function:steps(2)"/><g style="animation-name:down;animation-duration:.5s;animation-iteration-count:infinite;animation-timing-function:steps(2)"><path d="M29 17v-2h-1v4h1v-1zm0-3h1v1h-1zm0 5h1v1h-1zm1 1h1v1h-1zm1 1v1h2v-1h-1zm-1-8h1v1h-1zm4 6h1v1h-1zm0-5h1v1h-1zm-1-1v-1h-2v1h1zm0 7h1v1h-1zm0-7h1v1h-1zm2 2v4h1v-4z" fill="#64438e"/><path d="M34 17h-2v4h1v-1h1v-1h1v-2z" fill="#c260ff"/><path d="M30 17h-1v2h1v1h1v1h1v-4h-1zm4-2v-1h-1v-1h-1v4h3v-2z" fill="#dea8ff"/><path d="M31 17h1v-4h-1v1h-1v1h-1v2h1z" fill="#edd3fd"/></g><g style="animation-name:down;animation-duration:.5s;animation-iteration-count:infinite;animation-timing-function:steps(2);fill:#51ffa8"><path d="M24 21h1v1h-1zm-1 1h1v1h-1zm-1 1h1v1h-1zm-1 1h1v1h-1zm1 0h1v1h-1zm1 0h1v1h-1zm1 0h1v1h-1zm0-1h1v1h-1zm0-1h1v1h-1zm-1 1h1v1h-1zm15-2h1v1h-1zm-1 1h1v1h-1zm-1 1h1v1h-1zm-1 1h1v1h-1zm1 0h1v1h-1zm1 0h1v1h-1zm1 0h1v1h-1zm0-1h1v1h-1zm0-1h1v1h-1zm-1 1h1v1h-1z" class="gotchi-primary"/><path d="M21 26v-1h1v1zm1 1v-1h1v1zm1 1v-1h1v1zm1 1v-1h1v1zm0-1v-1h1v1zm0-1v-1h1v1zm0-1v-1h1v1zm-1 0v-1h1v1zm-1 0v-1h1v1zm1 1v-1h1v1zm12-1v-1h1v1zm1 1v-1h1v1zm1 1v-1h1v1zm1 1v-1h1v1zm0-1v-1h1v1zm0-1v-1h1v1zm0-1v-1h1v1zm-1 0v-1h1v1zm-1 0v-1h1v1zm1 1v-1h1v1z"/><path d="M26 29h-1v-1h1zm1-1h-1v-1h1zm1-1h-1v-1h1zm1-1h-1v-1h1zm-1 0h-1v-1h1zm-1 0h-1v-1h1zm-1 0h-1v-1h1zm0 1h-1v-1h1zm0 1h-1v-1h1zm1-1h-1v-1h1zm13 2h-1v-1h1zm1-1h-1v-1h1zm1-1h-1v-1h1zm1-1h-1v-1h1zm-1 0h-1v-1h1zm-1 0h-1v-1h1zm-1 0h-1v-1h1zm0 1h-1v-1h1zm0 1h-1v-1h1zm1-1h-1v-1h1z" class="gotchi-primary"/><path d="M29 24v1h-1v-1zm-1-1v1h-1v-1zm-1-1v1h-1v-1zm-1-1v1h-1v-1zm0 1v1h-1v-1zm0 1v1h-1v-1zm0 1v1h-1v-1zm1 0v1h-1v-1zm1 0v1h-1v-1zm-1-1v1h-1v-1zm16 1v1h-1v-1zm-1-1v1h-1v-1zm-1-1v1h-1v-1zm-1-1v1h-1v-1zm0 1v1h-1v-1zm0 1v1h-1v-1zm0 1v1h-1v-1zm1 0v1h-1v-1zm1 0v1h-1v-1zm-1-1v1h-1v-1z"/></g><svg x="15" y="41" class="gotchi-wearable wearable-body"><path d="M0 0v14h4v-2h5v2h5v-2h6v2h5v-2h5v2h4V0H0z" fill="#390601"/><g fill="#5e342f"><path d="M14 9h-1v1h-3V9H9V4H4v5H3v1H1v2h3v-2h5v2h5v-2h1V4h-1v5zM5 5h3v1H5V5zm0 2h3v1H5V7zm5-3h3v1h-3V4zm0 2h3v1h-3V6zM1 4h2v2H1V4z"/><path d="M10 8h3v1h-3V8zM1 7h2v2H1V7zm20-3h3v1h-3V4zm0 2h3v1h-3V6zm9-2h-5v5h-1v1h-3V9h-1V4h-1v6h1v2h5v-2h5v2h3v-2h-2V9h-1V4zm-4 1h3v1h-3V5zm0 2h3v1h-3V7z"/><path d="M31 7h2v2h-2V7zm0-3h2v2h-2V4zM21 8h3v1h-3V8zm-5-4h2v6h-2V4z"/></g><path d="M15 1h1v2h-1V1zm-5 0h1v1h-1V1zm2 0h1v1h-1V1zm9 0h1v1h-1V1zm2 0h1v1h-1V1zM4 1h1v1H4V1zm2 0h1v1H6V1zm2 0h1v1H8V1zM2 1h1v1H2V1zm27 0h1v1h-1V1zm-2 0h1v1h-1V1zm-2 0h1v1h-1V1zm6 0h1v1h-1V1zM18 1h1v2h-1V1zM5 2h1v1H5V2zM3 2h1v1H3V2zm4 0h1v1H7V2zm2 0h1v1H9V2zm4 0h1v1h-1V2zm15 0h1v1h-1V2zm-2 0h1v1h-1V2zm-6 0h1v1h-1V2zm4 0h1v1h-1V2zM1 2h1v1H1V2zm31 0h1v1h-1V2zM22 2h1v1h-1V2zM11 2h1v1h-1V2zm19 0h1v1h-1V2z" fill="#a97955"/></svg><g style="animation-name:down;animation-duration:.5s;animation-iteration-count:infinite;animation-timing-function:steps(2);display:block"><path d="M14 40h1v1h-1v-1zm-1-6h1v1h-1v-1zm1-1h1v1h-1v-1zm-2 2h1v1h-1v-1zm-5 3h1v4H7v-4zm5 3h2v1h-2v-1zm-4 1h4v1H8v-1zm0-5h2v1H8v-1zm2-1h2v1h-2v-1z" class="gotchi-primary"/><path d="M14 39h1v1h-1v-1zm-2 1h2v1h-2v-1zm-4 1h4v1H8v-1z" class="gotchi-secondary"/><path d="M8 38v3h4v-1h2v-1h1v-5h-1v1h-1v1h-1v1h-2v1H8z" fill="#fff"/><path d="M49 40h1v1h-1v-1zm1-6h1v1h-1v-1zm-1-1h1v1h-1v-1zm2 2h1v1h-1v-1zm5 3h1v4h-1v-4zm-6 3h2v1h-2v-1zm2 1h4v1h-4v-1zm2-5h2v1h-2v-1zm-2-1h2v1h-2v-1z" class="gotchi-primary"/><path d="M49 39h1v1h-1v-1zm1 1h2v1h-2v-1zm2 1h4v1h-4v-1z" class="gotchi-secondary"/><path d="M54 38v-1h-2v-1h-1v-1h-1v-1h-1v5h1v1h2v1h4v-3h-2z" fill="#fff"/></g><svg x="11" class="gotchi-wearable wearable-head"><path d="M42 14v-4h-2V8h-2V6h-2V4h-2V2h-4V0H18v2h-4v2h-2v2h-2v2H8v2H6v4H4v4H2v2H0v2h42v-2h-2v-2h-2v-4h-2v-2h-2v-2h4v2h2v2z" fill="#191919"/><path d="M4 18v2h34v-2H4zm32-2v-2h-4v-2h-2v-2h2V8h4V6h-2V4h-4V2H18v2h-4v2h-2v2h-2v2H8v4H6v2h30z"/><path d="M20 16h2v2h-2z" fill="#ffc88a"/><path d="M20 17h1v1h-1v-1zm1-1h1v1h-1v-1z" fill="#ffaa4a"/><path d="M21 17h1v1h-1v-1z" fill="#ff8700"/><path d="M24 8V7h-1V6h-1V5h-2v1h-1v1h-1v1h-1v4h1v1h1v1h1v1h2v-1h1v-1h1v-1h1V8z" fill="#191919"/><path d="M18 10v2h1v1h1v1h1v-4h-3zm5-2V7h-1V6h-1v4h3V8h-1z" fill="#ffaa4a"/><path d="M21 10v4h1v-1h1v-1h1v-2h-3z" fill="#ff8700"/><path d="M20 6v1h-1v1h-1v2h3V6h-1z" fill="#ffc88a"/></svg><svg x="1" y="29" class="gotchi-wearable wearable-hand wearable-hand-left"><path d="M2 0h1v1H2V0zm1 1h1v1H3V1zm1 1h1v1H4V2zM3 3h1v1H3V3zM2 4h1v2H2V4zm4-4h1v1H6V0zm1 1h1v1H7V1zm1 1h1v1H8V2zM7 3h1v1H7V3zM6 4h1v2H6V4z" fill="#d3cadf"/><path d="M0 5v9h1v1h8v-1h1v-2h2v-1h-2V8h2V7h-2V5H0zm12 3v3h1V8h-1z" fill="#64438e"/><path d="M1 14h8V6H1v8z" fill="#fff"/><path d="M8 6v8h1V6H8z" fill="#d3cadf"/><path d="M7.1 8.3v-.9H5.4v.9h-.8v-.9H2.9v.9H2v1.8h.9v.9h.8v.9h.9v.9h.9v-.9h.8V11h.9v-.9H8V8.3h-.9z" fill="#fa34f3"/><path d="M4.6 11.9h.9v.9h-.9v-.9z" fill="#7e18f8"/><path d="M3.7 11v.9h2.6V11H3.7z" fill="#8f17f9"/><path d="M2.9 10.1v.9h4.3v-.9H2.9z" fill="#ac15f9"/><path d="M2 9.2v.9h6v-.9H2z" fill="#cf15f9"/><path d="M7.1 8.3v-.9H5.4v.9h-.8v-.9H2.9v.9H2v.9h6v-.9h-.9z" fill="#fa34f3"/></svg><svg x="1" y="29" class="gotchi-wearable wearable-hand wearable-hand-right"><path d="M60 0h-1v1h1V0zm-1 1h-1v1h1V1zm-1 1h-1v1h1V2zm1 1h-1v1h1V3zm1 1h-1v2h1V4zm-4-4h-1v1h1V0zm-1 1h-1v1h1V1zm-1 1h-1v1h1V2zm1 1h-1v1h1V3zm1 1h-1v2h1V4z" fill="#d3cadf"/><path d="M62 5v9h-1v1h-8v-1h-1v-2h-2v-1h2V8h-2V7h2V5h10zM50 8v3h-1V8h1z" fill="#64438e"/><path d="M61 14h-8V6h8v8z" fill="#fff"/><path d="M54 6v8h-1V6h1z" fill="#d3cadf"/><path d="M54.9 8.3v-.9h1.7v.9h.8v-.9h1.7v.9h.9v1.8h-.9v.9h-.8v.9h-.9v.9h-.9v-.9h-.8V11h-.9v-.9H54V8.3h.9z" fill="#fa34f3"/><path d="M57.4 11.9h-.9v.9h.9v-.9z" fill="#7e18f8"/><path d="M58.3 11v.9h-2.6V11h2.6z" fill="#8f17f9"/><path d="M59.1 10.1v.9h-4.3v-.9h4.3z" fill="#ac15f9"/><path d="M60 9.2v.9h-6v-.9h6z" fill="#cf15f9"/><path d="M54.9 8.3v-.9h1.7v.9h.8v-.9h1.7v.9h.9v.9h-6v-.9h.9z" fill="#fa34f3"/></svg></svg>