<svg width="60" height="26" fill="none" xmlns="http://www.w3.org/2000/svg">
    <path d="M59 2h-1V0H0v2h2v2H0v2h2v2H0v2h2v2H0v2h2v2H0v2h2v2H0v2h2v2H0v2h58v-2h2v-2h-2v-2h2v-2h-2v-2h2v-2h-2v-2h2v-2h-2V8h2V6h-2V4h2V2h-1Zm-3 3v17h-1v1h-1v1H6v-1H5v-1H4V4h1V3h1V2h48v1h1v1h1v1Z" fill="#8064FF"/>
    <path d="M44 6h-1v1h1V6Z" fill="#8064FF"/>
    <path d="M45 3H13v20h34V3h-2Zm0 3v1h-1v1h1v2h-1V8h-1v2h-1V5h3v1Zm0 11v4h-1v-4h-1v4h-1v-5h3v1Zm-30 3v-4h3v1h-2v1h2v1h-2v1h2v1h-3v-1Zm0-11V5h3v1h-2v1h2v1h-2v2h-1V9ZM8 23h4V3H6v1H5v18h1v1h2Zm47-3V4h-1V3h-6v20h6v-1h1v-2Z" fill="#8064FF"/>
    <path d="M6 3H5v1h1V3Zm49 1v18h1V4h-1Zm0-1h-1v1h1V3Zm-3 20h-4V3h6V2H6v1h6v20H6v1h48v-1h-2Zm-6 0H13V3h34v20h-1ZM5 20V4H4v18h1v-2Zm1 2H5v1h1v-1Zm49 0h-1v1h1v-1Z" fill="#5D24BF"/>
    <path d="M16 5h-1v5h1V8h2V7h-2V6h2V5h-2Zm27 0h-1v5h1V8h1V7h-1V6h1v1h1V5h-2Z" fill="#5D24BF"/>
    <path d="M44 10h1V8h-1v2Zm-28 6h-1v5h3v-1h-2v-1h2v-1h-2v-1h2v-1h-2Zm27 0h-1v5h1v-4h1v4h1v-5h-2ZM8 12.5h3v-3H6v3h2Zm-1-2h3v1H7v-1Zm1 6h1v-2h1v2h1v-3H8v2H7v-2H6v3h2Zm44-7h-3v3h5v-3h-2Zm1 2h-3v-1h3v1Zm-1 2h-1v2h-1v-2h-1v3h3v-2h1v2h1v-3h-2Z" fill="#5D24BF"/>
    <path d="M29 11h-1v1h1v-1Zm1-1h-1v1h1v-1Z" fill="#fff"/>
    <path d="M32 9h-1v1h1V9Zm0 1v1h-1v1h-2v1h-2v1h4v-1h1v-1h1v-2h-1Zm-5 2h-1v1h1v-1Z" fill="#B135FF"/>
    <path d="M27 11h-1v1h1v-1Zm1 1h-1v1h1v-1Zm3-3h-1v1h1V9Zm1 1h-1v1h1v-1Zm2 0h-1v1h1v-1Zm1 1h-1v1h1v-1Zm-6 0v1h2v-1h-2Zm-1 3h-1v1h2v-1h-1Zm1 1v1h2v-1h-2Z" fill="#CB5BFF"/>
    <path d="M27 10v2h1v-1h1v-1h-2Zm3-1h-1v1h1V9Zm5 3h-1v1h1v-1Zm-3 3h-1v1h1v-1Zm1-1h-1v1h1v-1Z" fill="#F37AFF"/>
    <path d="M31 10h-1v1h1v-1Zm-2 2h-1v1h1v-1Zm5 2h-1v1h1v-1Zm1-1h-1v1h1v-1Z" fill="#FFC9FF"/>
    <path d="M30 16v1h2v-1h-2Zm2-1v1h2v-1h-2Zm3-1h-1v1h1v-1Zm0-2v2h1v-2h-1Z" fill="#3A2B77"/>
    <path d="M27 14h-1v1h1v-1Zm1 1h-1v1h2v-1h-1Zm2 1h-1v1h1v-1Zm6-5h-1v1h1v-1Zm-1-1h-1v1h1v-1Zm-5 4v1h2v-1h-2Zm3-1v1h1v-2h-1v1Z" fill="#47289B"/>
    <path d="M27 13h-1v1h1v-1Zm7-2h-1v1h1v-1Zm-2 2h-1v1h2v-2h-1v1Z" fill="#6F16E2"/>
    <path d="M31 8h-2v1h3V8h-1Zm-6 4v2h1v-3h-1v1Zm8-3h-1v1h2V9h-1Zm-3 5h-1v1h1v-1Zm-3-5v1h2V9h-2Zm0 1h-1v1h1v-1Z" fill="#5D24BF"/>
</svg>
