<svg width="60" height="26" fill="none" xmlns="http://www.w3.org/2000/svg">
    <path d="M6 3H5v1h1V3Zm49 1v18h1V4h-1Zm0-1h-1v1h1V3Zm-3 20h-4V3h6V2H6v1h6v20H6v1h48v-1h-2Zm-6 0H13V3h34v20h-1ZM5 20V4H4v18h1v-2Zm1 2H5v1h1v-1Zm49 0h-1v1h1v-1Z" fill="#0064FF"/>
    <path d="M59 2h-1V0H0v2h2v2H0v2h2v2H0v2h2v2H0v2h2v2H0v2h2v2H0v2h2v2H0v2h58v-2h2v-2h-2v-2h2v-2h-2v-2h2v-2h-2v-2h2v-2h-2V8h2V6h-2V4h2V2h-1Zm-3 3v17h-1v1h-1v1H6v-1H5v-1H4V4h1V3h1V2h48v1h1v1h1v1Z" fill="#59BCFF"/>
    <path d="M46 3H13v20h34V3h-1ZM8 23h4V3H6v1H5v18h1v1h2Zm47-3V4h-1V3h-6v20h6v-1h1v-2Z" fill="#59BCFF"/>
    <path d="M32.5 9V8h-1v3h1V9Zm1 2h-1v2h1v-2Zm0 2v3h1v-3h-1Zm0 3h-1v1h1v-1Zm-3 1h-2v1h4v-1h-2Z" fill="#0B0072"/>
    <path d="M28.5 9v2h1V8h-1v1Zm-2 5v2h1v-3h-1v1Zm2 2h-1v1h1v-1Zm-1-4v1h1v-2h-1v1Zm3-5h-1v1h2V7h-1Z" fill="#1000A3"/>
    <path d="M30.5 12h-1v1h1v-1Zm2 4h-1v1h1v-1Z" fill="#fff"/>
    <path d="M30.5 11v-1h-1v2h1v-1Zm1 1h-1v1h1v-1Zm-1 1h-1v1h1v-1Zm-1 3v1h2v-1h-2Zm3-2v2h1v-2h-1Zm-3-2h-1v1h1v-1Z" fill="#59BCFF"/>
    <path d="M31.5 9V8h-1v2h1V9Zm-3 4h-1v2h1v-2Zm3-2v4h-3v1h4v-5h-1Z" fill="#00F"/>
    <path d="M30.5 14h-1v1h1v-1Zm-2 1h-1v1h1v-1Zm1 1h-1v1h1v-1Zm0-5h-1v1h1v-1Zm2 0h-1v1h1v-1Zm0 2h-1v1h1v-1Zm2 0h-1v1h1v-1Zm-4 0h-1v1h1v-1Zm1-4h-1v1h1V9Z" fill="#0080FF"/>
    <path d="M31.5 10h-1v1h1v-1Zm0 4h-1v1h1v-1Zm-2 0h-1v1h1v-1Zm1-6h-1v1h1V8ZM16 5h-1v5h1V8h2V7h-2V6h2V5h-2Zm28 0h-2v5h1V8h1V7h-1V6h1v1h1V5h-1Z" fill="#0064FF"/>
    <path d="M44 10h1V8h-1v2Zm-28 6h-1v5h3v-1h-2v-1h2v-1h-2v-1h2v-1h-2Zm27 0h-1v5h1v-4h1v4h1v-5h-2ZM9 11.5H6v3h5v-3H9Zm1 2H7v-1h3v1Zm-1 2H8v2H7v-2H6v3h3v-2h1v2h1v-3H9Zm0-8H6v3h5v-3H9Zm1 2H7v-1h3v1Zm42 2h-3v3h5v-3h-2Zm1 2h-3v-1h3v1Zm-1 2h-1v2h-1v-2h-1v3h3v-2h1v2h1v-3h-2Zm1-8h-4v3h5v-3h-1Zm0 2h-3v-1h3v1Z" fill="#0064FF"/>
</svg>
