<svg width="60" height="26" fill="none" xmlns="http://www.w3.org/2000/svg">
    <path d="M59 2h-1V0H0v2h2v2H0v2h2v2H0v2h2v2H0v2h2v2H0v2h2v2H0v2h2v2H0v2h58v-2h2v-2h-2v-2h2v-2h-2v-2h2v-2h-2v-2h2v-2h-2V8h2V6h-2V4h2V2h-1Zm-3 3v17h-1v1h-1v1H6v-1H5v-1H4V4h1V3h1V2h48v1h1v1h1v1Z" fill="#FFC36B"/>
    <path d="M44 6h-1v1h1V6Z" fill="#FFC36B"/>
    <path d="M45 3H13v20h34V3h-2Zm0 3v1h-1v1h1v2h-1V8h-1v2h-1V5h3v1Zm0 11v4h-1v-4h-1v4h-1v-5h3v1Zm-30 3v-4h3v1h-2v1h2v1h-2v1h2v1h-3v-1Zm0-11V5h3v1h-2v1h2v1h-2v2h-1V9ZM8 23h4V3H6v1H5v18h1v1h2Zm47-3V4h-1V3h-6v20h6v-1h1v-2Z" fill="#FFC36B"/>
    <path d="M6 3H5v1h1V3Zm49 1v18h1V4h-1Zm0-1h-1v1h1V3Zm-3 20h-4V3h6V2H6v1h6v20H6v1h48v-1h-2Zm-6 0H13V3h34v20h-1ZM5 20V4H4v18h1v-2Zm1 2H5v1h1v-1Zm49 0h-1v1h1v-1Z" fill="#EA8C27"/>
    <path d="M16 5h-1v5h1V8h2V7h-2V6h2V5h-2Zm27 0h-1v5h1V8h1V7h-1V6h1v1h1V5h-2Z" fill="#EA8C27"/>
    <path d="M44 10h1V8h-1v2Zm-28 6h-1v5h3v-1h-2v-1h2v-1h-2v-1h2v-1h-2Zm27 0h-1v5h1v-4h1v4h1v-5h-2ZM8 12.5h3v-3H6v3h2Zm-1-2h3v1H7v-1Zm1 6h1v-2h1v2h1v-3H8v2H7v-2H6v3h2Zm0-8h3v-3H6v3h2Zm-1-2h3v1H7v-1Zm0 13v-1h1v2h3v-3h-1v2H9v-2H6v3h1v-1Zm45-10h-3v3h5v-3h-2Zm1 2h-3v-1h3v1Zm-1 2h-1v2h-1v-2h-1v3h3v-2h1v2h1v-3h-2Zm0-8h-3v3h5v-3h-2Zm1 2h-3v-1h3v1Zm0 11v1h-1v-2h-3v3h1v-2h1v2h3v-3h-1v1Z" fill="#EA8C27"/>
    <path d="M30 12.5h-1v1h1v-1Zm0-6v6h1v-6h-1Z" fill="#fff"/>
    <path d="M30 8.5h-1v1h1v-1Zm1 4h-1v1h1v-1Zm-4 0v1h2v-1h-2Z" fill="#FFFFC4"/>
    <path d="M30 16.5h-1v1h1v-1Zm1-2h-1v1h1v-1Zm-2-3v-1h-1v2h1v-1Zm1-2h-1v1h1v-1Zm3 3h-1v1h2v-1h-1Z" fill="#FFD596"/>
    <path d="M30 15.5h-1v1h2v-1h-1Zm1-2h-1v1h1v-1Zm-1-2v-1h-1v2h1v-1Zm2 1h-1v1h1v-1Zm0 4h-1v1h1v-1Zm1-2h-1v1h1v-1Zm-4-1h-1v2h1v-2Z" fill="#FFC36B"/>
    <path d="M32 8.5h-1v1h1v-1Zm-2 9v2h1v-3h-1v1Zm2-2h-1v1h1v-1Zm-2-1v-1h-1v2h1v-1Zm3-1h-1v1h1v-1Z" fill="#FFB200"/>
    <path d="M32 9.5h-1v1h1v-1Zm1 1h-1v1h1v-1Z" fill="#EA8C27"/>
    <path d="M32 10.5h-1v1h1v-1Zm1 1h-1v1h1v-1Z" fill="#D67137"/>
    <path d="M32 6.5h-1v2h1v-2Zm1 2h-1v2h1v-2Zm1 2h-1v2h1v-2Zm-3 4v1h1v-2h-1v1Zm4-2h-1v1h1v-1Zm-6 6v1h1v-2h-1v1Zm0-3h-1v2h1v-2Zm-1-2h-1v2h1v-2Z" fill="#994A4A"/>
    <path d="M31 5.5h-1v1h1v-1Zm-1 2v-1h-1v2h1v-1Zm2 4h-1v1h1v-1Zm-4-2v1h1v-2h-1v1Zm-1 2v1h1v-2h-1v1Zm4 8h-1v1h1v-1Zm0-1v1h1v-2h-1v1Zm1-2v1h1v-2h-1v1Zm1-3v2h1v-2h-1Zm-6-1h-1v1h1v-1Z" fill="#AD5A41"/>
</svg>
