<svg width="60" height="26" fill="none" xmlns="http://www.w3.org/2000/svg">
    <path d="M6 3H5v1h1V3Zm49 1v18h1V4h-1Zm0-1h-1v1h1V3Zm-3 20h-4V3h6V2H6v1h6v20H6v1h48v-1h-2Zm-6 0H13V3h34v20h-1ZM5 20V4H4v18h1v-2Zm1 2H5v1h1v-1Zm49 0h-1v1h1v-1Z" fill="#F0F"/>
    <path d="M59 2h-1V0H0v2h2v2H0v2h2v2H0v2h2v2H0v2h2v2H0v2h2v2H0v2h2v2H0v2h58v-2h2v-2h-2v-2h2v-2h-2v-2h2v-2h-2v-2h2v-2h-2V8h2V6h-2V4h2V2h-1Zm-3 3v17h-1v1h-1v1H6v-1H5v-1H4V4h1V3h1V2h48v1h1v1h1v1Z" fill="#FF96FF"/>
    <path d="M46 3H13v20h34V3h-1Z" fill="#FF96FF"/>
    <path d="M16 5h-1v5h1V8h2V7h-2V6h2V5h-2Zm28 0h-2v5h1V8h1V7h-1V6h1v1h1V5h-1Z" fill="#F0F"/>
    <path d="M44 10h1V8h-1v2Zm-28 6h-1v5h3v-1h-2v-1h2v-1h-2v-1h2v-1h-2Zm27 0h-1v5h1v-4h1v4h1v-5h-2Z" fill="#F0F"/>
    <path d="M8 23h4V3H6v1H5v18h1v1h2Zm47-3V4h-1V3h-6v20h6v-1h1v-2Z" fill="#FF96FF"/>
    <path d="M32 8.5h-1v1h1v-1Zm-2 6v2h1v-3h-1v1Zm2-3h-1v1h1v-1Zm-3 0h-1v1h1v-1Zm-2-1h-1v1h1v-1Zm3-2h-1v1h1v-1Z" fill="#FFC8FF"/>
    <path d="M25 10.5h-1v1h1v-1Zm1 1h-1v2h1v-2Zm1 2h-1v2h1v-2Zm1 2h-1v1h1v-1Zm1 1h-1v1h1v-1Zm1 1h-1v1h1v-1Zm5-6h-1v1h1v-1Zm-1 2h-1v1h1v-1Zm-2 3h-1v1h1v-1Z" fill="#9A298B"/>
    <path d="M33 8.5h-1v1h1v-1Zm1 2h-1v1h1v-1Zm-4-1h-1v1h3v-1h-2Zm-1-1h-1v1h1v-1Zm1 9v1h1v-2h-1v1Z" fill="#FF96FF"/>
    <path d="M26 10.5h-1v1h1v-1Zm1 1h-1v1h1v-1Zm1 2h-1v1h1v-1Zm2 3h-1v1h1v-1Z" fill="#FF00BE"/>
    <path d="M36 10.5h-1v1h1v-1Zm-2 4h-1v1h1v-1Zm-1 1h-1v1h1v-1Zm2-3h-1v1h1v-1Zm0-3h-1v1h1v-1Zm-2 1h-1v1h1v-1Zm-2 1h-1v1h1v-1Zm-2-1h-1v1h1v-1Zm-2-1h-1v1h1v-1Zm1 3v-1h-1v2h1v2h1v1h1v-4h-2Z" fill="#D700C1"/>
    <path d="M36 9.5h-1v1h1v-1Zm-1 1h-1v1h1v-1Zm-2-1h-1v1h2v-1h-1Zm0 2h-1v1h1v-1Zm-3-1h-1v1h3v-1h-2Zm-2-1h-1v1h2v-1h-1Zm0 5h-1v1h1v-1Zm1 1h-1v1h1v-1Zm-2-3h-1v1h1v-1Z" fill="#FF62FF"/>
    <path d="M31 8.5h-1v1h1v-1Zm-1 3h-1v1h1v-1Zm1 1h-1v1h1v-1Zm-3-2h-1v1h1v-1Zm-2-1h-1v1h1v-1Z" fill="#fff"/>
    <path d="M31 18.5h-1v1h1v-1Zm6-8h-1v1h1v-1Zm-2 2v1h1v-2h-1v1Zm-1 2v1h1v-2h-1v1Zm0 1h-1v1h1v-1Zm-1 1h-1v1h1v-1Zm-1 1h-1v1h1v-1Z" fill="#870075"/>
    <path d="M26 8.5h-1v1h3v-1h-2Zm-1 1h-1v1h1v-1Zm8 3h-2v4h1v-1h1v-2h1v-2h-1v1Zm-1-5h-4v1h5v-1h-1Zm3 1h-2v1h3v-1h-1Zm2 1h-1v1h1v-1Zm-28 3H6v3h5v-3H9Zm1 2H7v-1h3v1Zm-1 2H6v3h5v-3H9Zm1 2H7v-1h3v1Zm-1 2H6v1h5v-1H9Zm0-12H6v3h5v-3H9Zm1 2H7v-1h3v1Zm-1-6H6v3h5v-3H9Zm1 2H7v-1h3v1Zm42 6h-3v3h5v-3h-2Zm1 2h-3v-1h3v1Zm-1 2h-3v3h5v-3h-2Zm1 2h-3v-1h3v1Zm-1 2h-3v1h5v-1h-2Zm0-12h-3v3h5v-3h-2Zm1 2h-3v-1h3v1Zm0-6h-4v3h5v-3h-1Zm0 2h-3v-1h3v1Z" fill="#F0F"/>
</svg>
