<svg width="60" height="26" fill="none" xmlns="http://www.w3.org/2000/svg">
    <path d="M6 3H5v1h1V3Zm49 1v18h1V4h-1Zm0-1h-1v1h1V3Zm-3 20h-4V3h6V2H6v1h6v20H6v1h48v-1h-2Zm-6 0H13V3h34v20h-1ZM5 20V4H4v18h1v-2Zm1 2H5v1h1v-1Zm49 0h-1v1h1v-1Z" fill="#1E661E"/>
    <path d="M59 2h-1V0H0v2h2v2H0v2h2v2H0v2h2v2H0v2h2v2H0v2h2v2H0v2h2v2H0v2h58v-2h2v-2h-2v-2h2v-2h-2v-2h2v-2h-2v-2h2v-2h-2V8h2V6h-2V4h2V2h-1Zm-3 3v17h-1v1h-1v1H6v-1H5v-1H4V4h1V3h1V2h48v1h1v1h1v1Z" fill="#51FFA8"/>
    <path d="M46 3H13v20h34V3h-1Z" fill="#51FFA8"/>
    <path d="M16 5h-1v5h1V8h2V7h-2V6h2V5h-2Zm28 0h-2v5h1V8h1V7h-1V6h1v1h1V5h-1Z" fill="#1E661E"/>
    <path d="M44 10h1V8h-1v2Zm-28 6h-1v5h3v-1h-2v-1h2v-1h-2v-1h2v-1h-2Zm27 0h-1v5h1v-4h1v4h1v-5h-2Z" fill="#1E661E"/>
    <path d="M8 23h4V3H6v1H5v18h1v1h2Zm47-3V4h-1V3h-6v20h6v-1h1v-2Z" fill="#51FFA8"/>
    <path d="M26.5 10.4h-1v1h1v-1Zm0 5h-1v2h1v-2Zm7-10h-1v1h1v-1Zm0 3h1v-2h-1v2Zm2 8h-1v1h1v-1Zm-1 1h-1v1h1v-1Zm-7 0h-1v1h1v-1Zm2 3h-1v1h1v-1Zm-4-9h-1v1h1v-1Z" fill="#815382"/>
    <path d="M27.5 13.4v-1h1v-3h1v-1h1v-1h1v-1h-2v1h-1v1h-1v3h-1v3h1v-1Zm1 5h-1v1h1v-1Zm2 1h-2v1h4v-1h-2Zm2-1v1h1v-2h-1v1Zm1-3v2h1v-3h-1v1Zm1-4v3h1v-3h-1Zm0-2v-1h-1v3h1v-2Zm-2-2h-1v1h1v-1Z" fill="#fff"/>
    <path d="M29.5 13.4h-1v1h2v-2h-1v1Zm2-6h-1v1h1v-1Zm1 1h-1v1h1v-1Z" fill="#2B59FF"/>
    <path d="M29.5 5.4h-1v1h1v-1Zm-2 3h-1v1h1v-1Zm4 5v-1h-1v2h1v-1Zm1 5h-1v1h1v-1Zm-4-4v1h2v-1h-2Zm4-8h-1v1h1v-1Zm0 1v2h1v-2h-1Zm0 2h-1v1h1v-1Zm-3 2h-1v1h1v-1Z" fill="#54ACFF"/>
    <path d="M29.5 6.4h-1v1h1v-1Zm4 0h-1v1h1v-1Zm-6 6v1h2v-1h-2Zm-1 4v1h2v-1h-2Zm4 1h-1v1h1v-1Zm2-1h-1v1h1v-1Zm1-1h-1v1h1v-1Zm-3-4h-1v1h1v-1Zm2-1h-1v1h1v-1Zm-4-3h-1v1h1v-1Z" fill="#51FFA8"/>
    <path d="M32.5 10.4v1h-2v1h3v-2h-1Zm-4-4h-1v1h1v-1Zm1 10v1h2v-1h-2Zm-2 1v1h2v-1h-2Z" fill="#0F0"/>
    <path d="M27.5 10.4v-1h-1v2h1v-1Zm3 1h1v-1h-2v-1h-1v2h2Zm3 0v1h-2v3h-5v1h2v1h1v-1h3v-1h1v-1h-1v-1h1v1h1v-3h-1Zm0 5h-1v1h1v-1Zm-3 1v1h-2v1h3v-1h1v-1h-2Zm3-8h-1v1h1v-1Zm-7 4v-2h-1v3h1v-1Zm5-7h1v-1h-3v1h2Z" fill="#BAFFFF"/>
    <path d="M27.5 7.4v-1h-1v2h1v-1Zm-1 2v-1h-1v2h1v-1Zm-2 4v1h1v-2h-1v1Zm3 5h-1v1h1v-1Zm1 1h-1v1h1v-1Zm7-10v-1h-1v2h1v-1Zm0 3v2h1v-2h-1Zm-5-8h-1v1h3v-1h-2Zm0 16h-1v1h3v-1h-2Z" fill="#1E661E"/>
    <path d="M35.5 10.4h-1v1h1v-1Zm1 1h-1v1h1v-1Zm-2 4v1h1v-2h-1v1Zm0 3h-1v1h1v-1Zm-1 1h-1v1h1v-1Zm-4-15h-1v1h1v-1Zm-1 1h-1v1h1v-1Zm-2 9h-1v1h1v-1Z" fill="#33297C"/>
    <path d="M27.5 14.4h-1v1h1v-1Zm1-1h-1v1h1v-1Zm3 1h-1v1h1v-1Zm-1-6h-1v1h1v-1Zm1 1h-1v1h1v-1Z" fill="#FFC4E1"/>
    <path d="M28.5 14.4h-1v1h1v-1Zm5-1h-1v1h1v-1Zm-3-4h-1v1h1v-1Zm1-1h-1v1h1v-1Z" fill="#FF93C9"/>
    <path d="M9 10.8H6v3h5v-3H9Zm1 2H7v-1h3v1Zm-2-4H6v1h5v-1H9v-1H8v1Zm1-2v1h2v-1H9Zm-1 0H7v1h1v-1Zm1 8H8v2H7v-2H6v3h3v-2h1v2h1v-3H9Zm43-4h-3v3h5v-3h-2Zm1 2h-3v-1h3v1Zm-2-5v1h-2v1h5v-1h-2v-1h-1Zm3 0v-1h-2v1h2Zm-3-1h-1v1h1v-1Zm1 8h-1v2h-1v-2h-1v3h3v-2h1v2h1v-3h-2Z" fill="#1E661E"/>
</svg>
