<svg width="60" height="26" fill="none" xmlns="http://www.w3.org/2000/svg">
    <path d="M58 2V0H0v2h2v2H0v2h2v2H0v2h2v2H0v2h2v2H0v2h2v2H0v2h2v2H0v2h58v-2h2v-2h-2v-2h2v-2h-2v-2h2v-2h-2v-2h2v-2h-2V8h2V6h-2V4h2V2h-2Z" fill="#141414"/>
    <path d="M6 3H5v1h1V3Zm49 1v18h1V4h-1Zm0 0V3h-1v1h1Zm-1 19v1H6v-1h6V3H6V2h48v1h-6v20h6Zm-7 0V3H13v20h34ZM5 4H4v18h1V4Zm0 18v1h1v-1H5Zm49 1h1v-1h-1v1ZM6 12.5v3h5v-3H6Zm4 2H7v-1h3v1Zm-4 2v3h5v-3H6Zm4 2H7v-1h3v1Zm1 2v1H6v-1h5Zm-5-12v3h5v-3H6Zm4 2H7v-1h3v1Zm-4-6v3h5v-3H6Zm4 2H7v-1h3v1Zm39 6v3h5v-3h-5Zm4 2h-3v-1h3v1Zm-4 2v3h5v-3h-5Zm4 2h-3v-1h3v1Zm1 2v1h-5v-1h5Zm-5-12v3h5v-3h-5Zm4 2h-3v-1h3v1Zm-4-6v3h5v-3h-5Zm4 2h-3v-1h3v1ZM17 6h1v3h-1V6Zm27 4V8h1v2h-1ZM15 21h3v-5h-3v5Zm1-4h1v3h-1v-3Zm26 4h1v-2h2v-3h-3v5Zm1-4h1v1h-1v-1ZM16 9h1v1h-2V5h2v1h-1v3Zm28-2v1h-1v2h-1V5h3v2h-1V6h-1v1h1Z" fill="url(#a)"/>
    <path d="M34.362 9.888v-1.25h-.625v-.625h-.625v-.625h-1.25v-.625h-3.737v.625h-1.25v.625h-.625v.625h-.625v1.25H25v3.737h.625v1.25h.625v1.25h-.625V18h.625v.625h1.25v.625h4.987v-.625h1.25V18h.625v-1.875h-.625v-1.25h.625v-1.25h.625V9.888h-.625Z" fill="#5A00AA"/>
    <path d="M34.362 9.888v-1.25h-.625v-.625h-.625v-.625h-1.25v-.625h-3.737v.625h-1.25v.625h-.625v.625h-.625v1.25H25v3.737h.625v1.25h.625v.625h.625v.625h1.25v.625h3.738v-.625h1.25V15.5h.624v-.625h.625v-1.25h.625V9.888h-.625Z" fill="#BF5FFD"/>
    <path d="M26.887 16.125h-.625V18h1.25v.625h4.363V18h.625v-1.25h-4.363v-.625h-1.25Zm6.225-1.875h-.625v.625h-1.25v.625h-3.112v.625h3.738V15.5h1.25v-.625h.624v-1.25h-.625v.625Zm.625-4.362v3.737h.625V9.888h-.625Z" fill="#7819D7"/>
    <path d="M26.262 14.25h.625v.625h-.625v-.625Zm6.85-5.612v2.5h-.625v1.874h-.625v.625h-.624v.625h-1.875v.625h-2.5v.625h4.362v-.625h1.25v-.625h.625v-.625h.625V8.65h-.613v-.012Zm-.612-.625h.625v.625H32.5v-.625Z" fill="#9923FF"/>
    <path d="M28.125 8.013v-.625h-1.25v.625h1.25Zm-1.863 0h.625v.625h-.625v-.625Zm6.85 0h.625v.625h-.625v-.625Zm-6.85 6.862h.625v.625h-.625v-.625Zm6.85 0h.625v.625h-.625v-.625Zm-6.85-5.612v-.625h-.625v1.25h.625v-.625Zm0 4.362h-.625v1.25h.625v-1.25Zm7.475-3.737h.625v-1.25h-.625v1.25Zm0 4.362v.625h.625v-1.25h-.625v.625ZM32.5 8.013h.625v-.625h-1.25v.625h.625Zm-5 7.487h-.625v.625h1.25V15.5H27.5Zm4.375 0v.625h1.25V15.5h-1.25Zm-2.5-8.112h2.5v-.625h-3.738v.625h1.238Zm1.25 8.737h-2.5v.625h3.738v-.625h-1.238Zm-4.988-3.75v-2.5h-.625v3.738h.625v-1.238Zm8.725-2.487v3.737h.625V9.888h-.625Zm-6.237 0h.625v.624h-.625v-.624Z" fill="#EFC1FF"/>
    <path d="M31.25 9.888h.625v.624h-.625v-.624Zm-2.5 0h.625v.624h-.625v-.624Zm-.625.612h.625v.625h-.625V10.5Zm0-1.237h.625v.625h-.625v-.625Zm-.625.625h.625v.624H27.5v-.624ZM30 8.013h.625v.625H30v-.625Zm-3.738 3.737h.625v.625h-.625v-.625Zm4.363.625h.625V13h-.625v-.625Zm-2.5 1.25h.625v.625h-.625v-.625Z" fill="#DE81FF"/>
    <defs>
        <linearGradient id="a" x1="2.701" y1="21.695" x2="57.965" y2="4.094" gradientUnits="userSpaceOnUse">
            <stop stop-color="#BDBDBD"/>
            <stop offset=".374" stop-color="#EBEBEB"/>
            <stop offset=".554" stop-color="#E8E8E8"/>
            <stop offset=".667" stop-color="#DFDFDF"/>
            <stop offset=".762" stop-color="#D1D1D1"/>
            <stop offset=".847" stop-color="#BCBCBC"/>
            <stop offset=".925" stop-color="#A1A1A1"/>
            <stop offset=".997" stop-color="#818181"/>
            <stop offset="1" stop-color="gray"/>
        </linearGradient>
    </defs>
</svg>
